HIERARCHY
ROOT Pelvis
{
	OFFSET -0.217368 -24.078917 2.858379
	CHANNELS 6 Xposition Yposition Zposition Zrotation Yrotation Xrotation 
	JOINT Left_hip
	{
		OFFSET 5.858135 -8.228005 -1.766408
		CHANNELS 3 Zrotation Yrotation Xrotation
		JOINT Left_knee
		{
			OFFSET 4.345143 -38.646942 0.803700
			CHANNELS 3 Zrotation Yrotation Xrotation
			JOINT Left_ankle
			{
				OFFSET -1.479033 -42.687447 -3.742800
				CHANNELS 3 Zrotation Yrotation Xrotation
				JOINT Left_foot
				{
					OFFSET 4.105436 -6.028605 12.204244
					CHANNELS 3 Zrotation Yrotation Xrotation
					End Site
					{
						OFFSET 0.000000 0.000000 0.000000
					}
				}
			}
		}
	}
	JOINT Right_hip
	{
		OFFSET -6.030973 -9.051328 -1.354253
		CHANNELS 3 Zrotation Yrotation Xrotation
		JOINT Right_knee
		{
			OFFSET -4.325663 -38.368790 -0.484304
			CHANNELS 3 Zrotation Yrotation Xrotation
			JOINT Right_ankle
			{
				OFFSET 1.905555 -42.004566 -3.456167
				CHANNELS 3 Zrotation Yrotation Xrotation
				JOINT Right_foot
				{
					OFFSET -3.483987 -6.210554 13.032330
					CHANNELS 3 Zrotation Yrotation Xrotation
					End Site
					{
						OFFSET 0.000000 0.000000 0.000000
					}
				}
			}
		}
	}
	JOINT Spine1
	{
		OFFSET 0.443945 12.440353 -3.838522
		CHANNELS 3 Zrotation Yrotation Xrotation
		JOINT Spine2
		{
			OFFSET 0.448844 13.795640 2.682033
			CHANNELS 3 Zrotation Yrotation Xrotation
			JOINT Spine3
			{
				OFFSET -0.226460 5.603239 0.285504
				CHANNELS 3 Zrotation Yrotation Xrotation
				JOINT Neck
				{
					OFFSET -1.339018 21.163553 -3.346758
					CHANNELS 3 Zrotation Yrotation Xrotation
					JOINT Head
					{
						OFFSET 1.011321 8.893734 5.040987
						CHANNELS 3 Zrotation Yrotation Xrotation
						End Site
						{
							OFFSET 0.000000 0.000000 0.000000
						}
					}
				}
				JOINT Left_collar
				{
					OFFSET 7.170247 11.399971 -1.889817
					CHANNELS 3 Zrotation Yrotation Xrotation
					JOINT Left_shoulder
					{
						OFFSET 12.292140 4.520507 -1.904600
						CHANNELS 3 Zrotation Yrotation Xrotation
						JOINT Left_elbow
						{
							OFFSET 25.533188 -1.564902 -2.294648
							CHANNELS 3 Zrotation Yrotation Xrotation
							JOINT Left_wrist
							{
								OFFSET 26.570929 1.269810 -0.737473
								CHANNELS 3 Zrotation Yrotation Xrotation
								JOINT Left_palm
								{
									OFFSET 8.669054 -1.063602 -1.559429
									CHANNELS 3 Zrotation Yrotation Xrotation
									End Site
									{
										OFFSET 0.000000 0.000000 0.000000
									}
								}
							}
						}
					}
				}
				JOINT Right_collar
				{
					OFFSET -8.295364 11.247234 -2.370738
					CHANNELS 3 Zrotation Yrotation Xrotation
					JOINT Right_shoulder
					{
						OFFSET -11.322830 4.685326 -0.847207
						CHANNELS 3 Zrotation Yrotation Xrotation
						JOINT Right_elbow
						{
							OFFSET -26.012751 -1.436928 -3.126872
							CHANNELS 3 Zrotation Yrotation Xrotation
							JOINT Right_wrist
							{
								OFFSET -26.910841 0.679372 -0.602677
								CHANNELS 3 Zrotation Yrotation Xrotation
								JOINT Right_palm
								{
									OFFSET -8.875370 -0.865157 -1.010708
									CHANNELS 3 Zrotation Yrotation Xrotation
									End Site
									{
										OFFSET 0.000000 0.000000 0.000000
									}
								}
							}
						}
					}
				}
			}
		}
	}
}
MOTION
Frames: 9
Frame Time: 0.016667
-0.217368 72.115097 2.858379 -0.849555 1.554265 -1.033984 -0.634898 0.253848 2.537141 -0.232567 0.024257 0.039754 -2.269751 -1.646232 6.147943 0.000000 0.000000 0.000000 1.858189 -0.178708 1.161795 -0.426751 0.150154 2.408134 1.489174 1.129578 4.757218 0.000000 0.000000 0.000000 1.130986 -0.110549 2.003467 0.117633 0.037929 -3.229791 -0.950414 0.606133 4.408843 1.377162 -1.248457 1.593602 0.000000 0.000000 0.000000 -26.036863 -0.081410 -2.758568 -44.896851 -1.039350 -4.546451 -10.197592 -20.154434 2.513185 0.000000 0.000000 0.000000 0.000000 0.000000 0.000000 26.955654 -0.475498 -3.131740 46.192806 1.241602 -3.579798 2.658766 21.339852 1.107646 0.000000 0.000000 0.000000 0.000000 0.000000 0.000000 
-0.175970 72.155121 2.893027 -0.424735 1.410078 -1.347928 -1.481946 0.436438 4.003754 0.421852 -0.001416 -1.186196 -2.339151 -1.556498 6.614116 0.000000 0.000000 0.000000 1.369205 -0.290613 2.304639 -0.540946 0.103707 1.039933 1.951560 2.084016 4.961432 0.000000 0.000000 0.000000 0.602438 -0.083245 1.704702 0.387848 -0.102946 -2.588526 -1.050280 0.462377 4.375280 1.046091 -0.995255 1.759765 0.000000 0.000000 0.000000 -26.480584 0.115918 -2.933554 -45.182889 -1.202548 -4.519650 -9.964507 -20.831583 2.558835 0.000000 0.000000 0.000000 0.000000 0.000000 0.000000 27.551366 -0.424887 -3.174010 46.759604 1.392674 -3.571242 2.061430 21.397965 1.010473 0.000000 0.000000 0.000000 0.000000 0.000000 0.000000 
-0.129495 72.123734 2.963147 -0.186916 1.180831 -1.198205 -1.684208 0.428439 3.838612 0.338140 0.000817 -1.022153 -1.667020 -0.181060 6.884178 0.000000 0.000000 0.000000 1.114306 -0.224956 1.809329 -0.615216 0.132597 1.489347 1.646917 1.144664 5.428590 0.000000 0.000000 0.000000 0.448788 -0.077131 1.647047 0.216047 -0.014715 -2.937108 -1.244153 0.753173 5.553163 1.445410 -1.160473 0.184073 0.000000 0.000000 0.000000 -26.772679 -0.833486 -2.380685 -45.108180 -0.605780 -4.723015 -8.135610 -22.050600 2.362856 0.000000 0.000000 0.000000 0.000000 0.000000 0.000000 28.519585 0.366169 -2.783851 47.015439 1.084176 -3.706785 1.433361 21.453741 0.907431 0.000000 0.000000 0.000000 0.000000 0.000000 0.000000 
-0.085491 72.125961 3.056097 -0.094424 2.177006 -1.801277 -2.228551 0.499205 4.249652 0.565148 -0.036835 -0.644486 -2.239052 -1.232766 6.907538 0.000000 0.000000 0.000000 0.929052 -0.299951 2.568041 -0.364828 0.103959 1.518600 1.502737 0.919382 5.228816 0.000000 0.000000 0.000000 0.319120 -0.092684 2.071855 0.152531 -0.014216 -1.984017 -1.466651 0.120564 4.644317 1.364788 -1.187139 1.087684 0.000000 0.000000 0.000000 -26.985936 -0.882962 -2.373747 -44.628568 -0.886126 -4.570850 -7.889621 -21.489880 2.254219 0.000000 0.000000 0.000000 0.000000 0.000000 0.000000 28.858911 0.014851 -3.052122 46.773300 1.210227 -3.639695 1.511849 20.771143 0.889500 0.000000 0.000000 0.000000 0.000000 0.000000 0.000000 
-0.052723 72.118851 3.185384 -0.091481 2.339156 -1.876965 -2.183796 0.496869 4.248610 0.413415 -0.023328 -0.583782 -2.183868 -0.915585 7.377572 0.000000 0.000000 0.000000 0.611507 -0.250546 2.238633 -0.321540 0.130743 2.267803 1.458498 0.854973 5.157400 0.000000 0.000000 0.000000 0.607310 -0.096145 1.982606 -0.021251 0.071126 -2.185554 -1.793397 0.083861 5.184888 1.552152 -1.341247 1.116611 0.000000 0.000000 0.000000 -26.879335 -1.238378 -2.140622 -44.675220 -0.527147 -4.701584 -8.307771 -21.686609 2.354748 0.000000 0.000000 0.000000 0.000000 0.000000 0.000000 29.277467 -0.165480 -3.221190 46.857969 0.972379 -3.734725 2.031132 21.265006 0.998676 0.000000 0.000000 0.000000 0.000000 0.000000 0.000000 
-0.016651 72.119591 3.331067 -0.010815 2.967981 -2.288052 -2.531433 0.571573 4.752464 0.669181 -0.057211 -0.406255 -2.415388 -1.099073 7.907869 0.000000 0.000000 0.000000 0.379172 -0.309204 2.901323 -0.269220 0.130580 2.420373 1.540530 0.945779 5.345912 0.000000 0.000000 0.000000 0.287893 -0.103327 2.337033 0.045970 0.031506 -1.871593 -1.748929 0.018352 4.665143 1.735951 -1.598907 2.137051 0.000000 0.000000 0.000000 -26.612249 -1.177967 -2.149441 -44.767689 0.083402 -4.926032 -8.720328 -21.990608 2.468348 0.000000 0.000000 0.000000 0.000000 0.000000 0.000000 29.189770 -0.113986 -3.176619 47.037887 1.040225 -3.725022 1.858974 20.986999 0.956378 0.000000 0.000000 0.000000 0.000000 0.000000 0.000000 
0.023214 72.119591 3.481420 0.002615 3.090218 -2.274628 -2.433322 0.563010 4.723705 0.407089 -0.031508 -0.349475 -2.182313 -0.550765 8.187060 0.000000 0.000000 0.000000 0.140898 -0.324194 3.163672 -0.341751 0.132611 2.251844 1.578347 0.974439 5.458278 0.000000 0.000000 0.000000 0.420935 -0.120061 2.628305 0.010666 0.047192 -1.851568 -1.757760 0.215397 4.334837 1.840804 -1.674124 2.036535 0.000000 0.000000 0.000000 -26.528057 -1.167367 -2.146935 -44.915106 0.640653 -5.139493 -8.619140 -22.405863 2.497195 0.000000 0.000000 0.000000 0.000000 0.000000 0.000000 29.370051 -0.046623 -3.154582 47.048858 0.693018 -3.854938 1.893614 21.388077 0.981779 0.000000 0.000000 0.000000 0.000000 0.000000 0.000000 
0.071627 72.157730 3.619905 0.232131 3.845527 -2.568258 -2.542929 0.625421 5.218620 0.318096 -0.018192 -0.452766 -2.425480 -0.951212 8.275491 0.000000 0.000000 0.000000 0.176904 -0.414726 4.033907 -0.563367 0.146294 1.933370 1.513290 0.883430 5.347149 0.000000 0.000000 0.000000 0.182319 -0.137264 3.210318 0.080604 0.010846 -1.707634 -1.807776 0.005816 4.158409 1.787572 -1.572798 1.503308 0.000000 0.000000 0.000000 -26.436949 -1.525590 -1.915907 -44.973093 0.907835 -5.240710 -8.586232 -22.640793 2.518022 0.000000 0.000000 0.000000 0.000000 0.000000 0.000000 29.654982 0.322605 -2.945563 47.090501 0.717963 -3.849369 1.852911 21.847158 0.997367 0.000000 0.000000 0.000000 0.000000 0.000000 0.000000 
0.115185 72.153397 3.768799 0.110466 3.816751 -2.737344 -2.415247 0.638151 5.396948 0.419296 -0.032083 -0.368712 -2.516543 -1.159929 8.178649 0.000000 0.000000 0.000000 0.472673 -0.466162 4.359081 -0.550826 0.138065 1.783846 1.832849 1.663479 5.242030 0.000000 0.000000 0.000000 0.377094 -0.155473 3.463623 -0.024910 0.052981 -1.469369 -1.650615 0.265259 4.029275 1.627443 -1.415824 1.248303 0.000000 0.000000 0.000000 -26.554429 -1.746394 -1.791293 -45.135182 0.929187 -5.268965 -8.264409 -23.282388 2.527039 0.000000 0.000000 0.000000 0.000000 0.000000 0.000000 29.827171 0.589124 -2.789152 47.235094 0.526904 -3.933498 1.751723 22.567994 1.014567 0.000000 0.000000 0.000000 0.000000 0.000000 0.000000 
